<svg width="398" height="95" viewBox="0 0 398 95" fill="none" xmlns="http://www.w3.org/2000/svg">
<path d="M55.284 44.6911C55.284 56.0914 46.0423 65.3331 34.642 65.3331C23.2417 65.3331 14 56.0914 14 44.6911C14 33.2908 23.2417 24.0491 34.642 24.0491C46.0423 24.0491 55.284 33.2908 55.284 44.6911Z" stroke="white" stroke-width="10.6007"/>
<path d="M64.5327 23.7272H65.0172V68.0307H64.5327V23.7272Z" stroke="#FF0000" stroke-width="8.6216" stroke-linecap="round" stroke-linejoin="round"/>
<path d="M116.598 23.8581H107.952V40.1319C108.065 40.1319 108.602 40.1319 109.563 40.1319C110.523 40.0754 111.427 40.0471 112.275 40.0471C113.179 39.9906 114.394 39.9059 115.92 39.7928C117.502 39.6234 118.717 39.4539 119.564 39.2843C120.468 39.0583 121.485 38.7192 122.616 38.2672C123.802 37.8151 124.678 37.2783 125.243 36.6567C126.712 35.1876 127.447 33.3794 127.447 31.2321C127.447 27.6158 125.413 25.3273 121.344 24.3666C119.988 24.0276 118.406 23.8581 116.598 23.8581ZM117.191 46.7431L107.952 47.2516V64.2883H116.259C119.932 64.2883 122.502 64.1188 123.972 63.7797C125.497 63.4407 126.797 63.0734 127.871 62.6779C128.944 62.2258 129.792 61.7173 130.413 61.1522C131.996 59.7961 132.787 58.0444 132.787 55.8971C132.787 53.0718 131.374 50.8398 128.549 49.2011C125.78 47.5625 121.994 46.7431 117.191 46.7431ZM97.5267 15.0431H118.717C124.254 15.0432 128.549 15.9755 131.6 17.8401C134.595 19.6484 136.601 21.6826 137.618 23.9428C138.579 26.1466 139.031 28.1809 138.974 30.0455C138.974 31.9103 138.466 33.8315 137.448 35.8091C136.488 37.7304 135.216 39.3408 133.634 40.6404C138.211 42.5052 141.206 45.8673 142.619 50.7268C143.014 52.2525 143.212 53.7499 143.212 55.2191C143.212 56.6317 143.043 58.0444 142.703 59.457C142.364 60.8697 141.602 62.4801 140.415 64.2883C139.285 66.04 137.816 67.6222 136.008 69.0349C134.199 70.391 131.656 71.5493 128.379 72.5099C125.158 73.414 121.457 73.8661 117.276 73.8661H97.5267V15.0431Z" fill="white"/>
<path d="M165.014 34.8768C170.325 33.0687 175.213 32.1646 179.677 32.1646C184.198 32.1646 187.729 32.5601 190.272 33.3511C192.871 34.1423 194.821 35.2724 196.121 36.7415C198.55 39.3973 199.765 42.8442 199.765 47.0822V73.8661H192.137L191.035 71.1538C187.305 73.5271 183.124 74.7137 178.491 74.7137C172.049 74.7137 167.189 72.8772 163.912 69.2043C162.16 67.1701 161.284 65.0229 161.284 62.7626C161.284 60.6719 161.567 58.9202 162.132 57.5076C162.697 56.0384 163.629 54.8518 164.929 53.9477C166.229 52.9871 167.613 52.2243 169.082 51.6592C170.551 51.0376 172.473 50.5856 174.846 50.303C178.688 49.851 183.604 49.625 189.594 49.6249V49.0316C189.594 45.3022 188.068 42.929 185.017 41.9119C183.604 41.4599 181.514 41.2338 178.745 41.2338C175.976 41.2338 172.162 41.8271 167.302 43.0137L165.692 43.5223L163.573 35.3007L165.014 34.8768ZM189.594 63.2712V57.3381H188.577C182.361 57.3381 178.038 57.5924 175.609 58.1009C173.235 58.6095 172.049 59.8526 172.049 61.8303C172.049 63.13 172.812 64.1471 174.337 64.8817C175.92 65.6162 178.208 65.9835 181.203 65.9835C184.198 65.9835 186.995 65.0794 189.594 63.2712Z" fill="white"/>
<path d="M203.904 33.0121H211.024L212.38 35.8092C217.692 33.3795 222.495 32.1646 226.789 32.1646C233.796 32.1646 238.317 34.7639 240.351 39.9624C241.368 42.5617 241.905 45.8108 241.961 49.7097V73.8661H231.705V49.8792C231.705 46.9974 231.084 44.935 229.841 43.6918C228.541 42.3357 226.478 41.6576 223.653 41.6576C220.884 41.6576 217.692 42.4205 214.075 43.9461V73.8661H203.904V33.0121Z" fill="white"/>
<path d="M256.49 49.3707L274.12 32.1646H286.325L266.153 50.8964L287.003 73.8661H274.459L256.49 53.5239V73.8661H246.319V15.0432H256.49V49.3707Z" fill="white"/>
<path d="M314.158 18.9514C319.583 18.9515 324.47 20.1381 328.821 22.5114C333.172 24.8282 336.619 28.2468 339.162 32.7672C341.761 37.2878 343.061 42.4863 343.061 48.3629C343.061 57.4039 340.292 64.778 334.755 70.4851C329.273 76.1357 322.295 78.9611 313.819 78.9611C306.304 78.9611 299.721 76.503 294.07 71.587C291.358 69.2137 289.182 66.0777 287.544 62.1787C285.905 58.2798 285.086 53.9288 285.086 49.1258C285.086 40.0848 287.826 32.7955 293.307 27.2579C298.845 21.7203 305.795 18.9515 314.158 18.9514ZM320.345 29.7159C318.198 28.9249 315.995 28.5293 313.734 28.5292C311.53 28.5293 309.383 28.9249 307.293 29.7159C305.202 30.507 303.281 31.6654 301.529 33.191C299.777 34.7168 298.365 36.7792 297.291 39.3784C296.274 41.9777 295.765 44.9444 295.765 48.2782C295.765 54.6634 297.545 59.8054 301.105 63.7043C304.665 67.5468 309.101 69.468 314.412 69.468C318.989 69.468 323.03 67.8859 326.533 64.7215C328.285 63.1393 329.697 60.9921 330.771 58.2798C331.844 55.5675 332.381 52.4879 332.381 49.041C332.381 45.5377 331.816 42.4298 330.686 39.7175C329.612 37.0052 328.143 34.858 326.279 33.2758C324.47 31.6936 322.493 30.507 320.345 29.7159Z" fill="white"/>
<path d="M345.783 33.0121H352.903L354.259 35.8092C359.571 33.3795 364.373 32.1646 368.668 32.1646C375.675 32.1646 380.195 34.7639 382.229 39.9624C383.247 42.5617 383.783 45.8108 383.84 49.7097V73.8661H373.584V49.8792C373.584 46.9974 372.962 44.935 371.719 43.6918C370.42 42.3357 368.357 41.6576 365.532 41.6576C362.763 41.6576 359.571 42.4205 355.954 43.9461V73.8661H345.783V33.0121Z" fill="white"/>
<path d="M156.6 15H148.019C147.276 15 146.675 15.6019 146.675 16.3444V72.8102C146.675 73.5527 147.276 74.1546 148.019 74.1546H156.6C157.342 74.1546 157.944 73.5527 157.944 72.8102V16.3444C157.944 15.6019 157.342 15 156.6 15Z" fill="white"/>
</svg>
